<?xml version="1.0" encoding="utf-8"?>
<!-- Generator: Adobe Illustrator 16.0.0, SVG Export Plug-In . SVG Version: 6.00 Build 0)  -->
<!DOCTYPE svg PUBLIC "-//W3C//DTD SVG 1.1//EN" "http://www.w3.org/Graphics/SVG/1.1/DTD/svg11.dtd">
<svg version="1.1" id="Layer_1" xmlns="http://www.w3.org/2000/svg" xmlns:xlink="http://www.w3.org/1999/xlink" x="0px" y="0px"
	 width="245px" height="170px" viewBox="0 0 245 170" enable-background="new 0 0 245 170" xml:space="preserve">
<path fill="#F7F7F7" d="M228.025-42.812c-0.489,1.816-1.039,3.545-1.617,5.238c-0.039,0.116-0.081,0.233-0.119,0.349
	c-0.732,2.113-1.551,4.127-2.417,6.099c-0.269,0.573-0.531,1.16-0.8,1.73c-0.102,0.227-0.199,0.461-0.303,0.69
	c-0.017,0.035-0.033,0.068-0.05,0.102c-0.855,1.778-1.76,3.433-2.663,5.081c-0.423,0.772-0.873,1.521-1.309,2.282
	c-0.695,1.176-1.393,2.35-2.131,3.497c-0.011,0.018-0.021,0.036-0.033,0.054c-0.189,0.293-0.381,0.583-0.572,0.872
	c-0.007,0.011-0.016,0.021-0.021,0.032c-1.756,2.651-3.636,5.181-5.631,7.587c-0.081,0.101-0.162,0.202-0.244,0.301
	c-0.969,1.157-1.967,2.283-2.992,3.377c-0.129,0.132-0.255,0.269-0.384,0.401c-1.02,1.073-2.06,2.123-3.134,3.131
	c-0.051,0.058-0.103,0.121-0.152,0.179c-0.272,0.26-0.539,0.536-0.816,0.782c-1.825,1.654-3.752,3.183-5.719,4.643
	c-0.205,0.151-0.398,0.333-0.604,0.482c-1.023,0.744-2.088,1.425-3.147,2.113c-0.843,0.532-1.685,1.073-2.534,1.569
	c-0.704,0.416-1.416,0.818-2.135,1.21c-0.725,0.391-1.451,0.782-2.189,1.152c-2.746,1.372-5.584,2.585-8.522,3.613
	c-0.321,0.106-0.634,0.23-0.954,0.338c-1.603,0.538-3.193,1.138-4.824,1.556c-0.018,0.004-0.037,0.013-0.055,0.018
	c-2.922,0.748-5.856,1.289-8.795,1.656c-0.73,0.086-1.482,0.085-2.219,0.145c-2.86,0.269-5.721,0.359-8.573,0.279
	c-0.224-0.008-0.449-0.022-0.671-0.035c-9.21-0.344-18.293-2.435-26.986-6.073c-2.237-0.847-4.446-1.579-6.727-2.603
	C95.028-1.301,13.123-45.323-61.793,12.963c31.086,23.844,87.487,41.714,143.888,38.801c-19.104,15.747-35.41,39.148-42.167,74.769
	c25.041,0.426,79.835-8.174,126.726-56.556c-4.795,23.851-4.814,53.562,4.681,90.685c0.781,3.066,1.628,6.17,2.544,9.338
	c27.751-22.49,99.426-99.127,59.078-259.761c0,0-0.475,0.121-1.115,0.285C233.74-73.063,232.307-57.166,228.025-42.812z"/>
</svg>
