<?xml version="1.0" encoding="utf-8"?>
<!-- Generator: Adobe Illustrator 16.0.0, SVG Export Plug-In . SVG Version: 6.00 Build 0)  -->
<!DOCTYPE svg PUBLIC "-//W3C//DTD SVG 1.1//EN" "http://www.w3.org/Graphics/SVG/1.1/DTD/svg11.dtd">
<svg version="1.1" id="Layer_1" xmlns="http://www.w3.org/2000/svg" xmlns:xlink="http://www.w3.org/1999/xlink" x="0px" y="0px"
	 width="806px" height="207px" viewBox="0 0 806 207" enable-background="new 0 0 806 207" xml:space="preserve">
<linearGradient id="SVGID_1_" gradientUnits="userSpaceOnUse" x1="0" y1="103.5" x2="806" y2="103.5">
	<stop  offset="0" style="stop-color:#82BC41"/>
	<stop  offset="1" style="stop-color:#266633"/>
</linearGradient>
<path fill="url(#SVGID_1_)" d="M0,0c14.803,118.693,130.782,208.186,268.653,206.988c68.473-0.596,182.761-35.508,287.361-88.391
	C649.878,71.149,740.365,23.352,806,0H0z"/>
<path fill="#FFFFFF" d="M7,0c9.976,105.331,110.457,188.87,236.122,191.939c63.112,1.543,170.741-27.151,271.488-73.44
	C630.836,65.099,744.192,9.939,810,0H7z"/>
<path opacity="0.05" d="M130.644,123.025c-0.54-0.307-1.049-0.625-1.542-0.948c-0.034-0.022-0.068-0.045-0.103-0.067
	c-0.616-0.408-1.193-0.837-1.753-1.275c-0.161-0.133-0.327-0.266-0.487-0.398c-0.064-0.051-0.132-0.102-0.196-0.154
	c-0.017-0.013-0.032-0.027-0.048-0.041c-0.49-0.414-0.94-0.834-1.388-1.254c-0.212-0.199-0.415-0.404-0.622-0.607
	c-0.32-0.318-0.639-0.639-0.944-0.969c-0.004-0.006-0.008-0.01-0.012-0.014c-0.08-0.086-0.157-0.173-0.235-0.259
	c-0.003-0.003-0.006-0.007-0.008-0.009c-1.074-1.19-2.038-2.449-2.878-3.771c-0.031-0.052-0.064-0.104-0.096-0.154
	c-0.261-0.416-0.511-0.834-0.746-1.263c-0.015-0.021-0.03-0.043-0.044-0.063c-0.062-0.108-0.128-0.217-0.184-0.326
	c-0.38-0.721-0.711-1.465-1.018-2.215c-0.031-0.078-0.073-0.155-0.104-0.234c-0.154-0.391-0.285-0.786-0.418-1.184
	c-0.102-0.313-0.206-0.627-0.295-0.939c-0.075-0.261-0.146-0.523-0.212-0.786c-0.066-0.265-0.132-0.53-0.189-0.798
	c-0.224-1.033-0.387-2.086-0.474-3.156c-0.005-0.068-0.01-0.139-0.015-0.207c-0.041-0.559-0.104-1.118-0.104-1.676
	c0-0.006-0.001-0.014-0.001-0.019c0-0.999,0.067-1.985,0.19-2.958c0.032-0.242,0.094-0.482,0.135-0.724
	c0.148-0.94,0.353-1.864,0.612-2.774c0.021-0.07,0.044-0.142,0.065-0.211c0.864-2.928,2.275-5.67,4.15-8.161
	c0.454-0.647,0.869-1.296,1.383-1.944c5.184-6.516,25.962-29.182,13.45-58.001c-10.168,8.017-20.497,24.646-24.18,42.98
	c-3.473-7.421-9.623-14.574-20.462-19.665c-2.185,7.999-3.928,26.281,7.705,45.293c-7.233-3.492-16.729-5.934-29.37-5.934
	c-1.044-0.002-2.106,0.016-3.194,0.05c4.922,10.749,23.567,40.035,78.24,40.273c0,0,0-0.162,0-0.382
	C139.852,127.342,134.884,125.577,130.644,123.025z"/>
<path fill="#83BC41" d="M266.895,47.54c-0.245,0.223-0.367,0.595-0.367,1.117V61.07c0,0.513,0.112,0.88,0.338,1.102
	c0.284,0.281,0.588,0.423,0.911,0.423c0.313,0,0.577-0.096,0.793-0.287c0.333-0.211,0.499-0.624,0.499-1.237v-6.765
	c0-0.575,0.029-0.992,0.089-1.253c0.146-0.735,0.45-1.375,0.91-1.919c0.842-0.926,1.841-1.389,2.996-1.389
	c0.412,0,0.853,0.075,1.322,0.227c1.067,0.423,1.836,1.147,2.307,2.175c0.244,0.473,0.367,1.192,0.367,2.159v6.765
	c0,0.513,0.112,0.88,0.338,1.102c0.283,0.281,0.588,0.423,0.91,0.423c0.304,0,0.568-0.096,0.793-0.287
	c0.334-0.211,0.5-0.624,0.5-1.237v-6.826c0-1.298-0.196-2.345-0.588-3.14c-0.166-0.443-0.499-0.992-0.998-1.646
	c-1.381-1.55-3.041-2.325-4.98-2.325c-0.979,0-1.934,0.231-2.863,0.694c-0.353,0.202-0.583,0.303-0.691,0.303
	c-0.254,0-0.465-0.137-0.631-0.408c-0.285-0.393-0.637-0.589-1.058-0.589C267.468,47.133,267.169,47.269,266.895,47.54
	 M253.602,51.119c1.048-0.916,2.145-1.374,3.29-1.374h0.294c0.705,0,1.454,0.212,2.247,0.635c0.196,0.141,0.295,0.302,0.295,0.482
	v0.091c0,0.181-0.074,0.342-0.221,0.482c-3.897,2.859-5.871,4.299-5.92,4.319c-0.401,0.342-0.676,0.513-0.822,0.513
	c-0.187,0-0.344-0.061-0.47-0.181c-0.167-0.131-0.25-0.549-0.25-1.253C252.045,53.445,252.563,52.207,253.602,51.119 M252.5,48.673
	c-0.255,0.171-0.661,0.559-1.219,1.163c-1.195,1.521-1.792,3.206-1.792,5.059c0,0.976,0.215,2.013,0.646,3.11
	c0.186,0.412,0.44,0.865,0.764,1.358c0.431,0.624,0.984,1.203,1.659,1.736c1.4,0.997,2.859,1.495,4.378,1.495h0.234
	c0.861,0,1.763-0.196,2.703-0.589c0.489-0.182,1.053-0.508,1.688-0.981c0.372-0.271,0.804-0.694,1.293-1.269
	c0.47-0.623,0.808-1.178,1.014-1.661c0.353-0.886,0.533-1.524,0.544-1.917v-0.045c0-0.152-0.025-0.288-0.074-0.408
	c-0.225-0.574-0.632-0.861-1.219-0.861c-0.304,0-0.603,0.137-0.896,0.408c-0.176,0.191-0.313,0.533-0.411,1.026
	c-0.156,0.483-0.318,0.861-0.484,1.133c-0.098,0.251-0.422,0.664-0.97,1.238c-1.009,0.865-2.076,1.298-3.202,1.298h-0.294
	c-0.705,0-1.454-0.205-2.247-0.618c-0.206-0.142-0.309-0.308-0.309-0.499v-0.09c0-0.141,0.059-0.281,0.177-0.423
	c0.793-0.584,1.189-0.882,1.189-0.892c4.7-3.433,7.129-5.214,7.285-5.345c0.284-0.302,0.426-0.614,0.426-0.937
	c-0.01-0.039-0.015-0.095-0.015-0.166c0-0.322-0.284-0.805-0.852-1.449c-1.576-1.62-3.407-2.432-5.493-2.432
	C255.398,47.117,253.891,47.637,252.5,48.673 M235.784,52.086c0.166-0.303,0.465-0.665,0.896-1.088
	c0.999-0.835,2.047-1.253,3.144-1.253h0.265c1.146,0,2.227,0.448,3.245,1.344c1.067,1.098,1.602,2.325,1.602,3.685v0.166
	c0,0.926-0.265,1.826-0.794,2.702c-0.166,0.292-0.47,0.649-0.91,1.073c-0.989,0.835-2.037,1.252-3.143,1.252h-0.265
	c-1.137,0-2.214-0.441-3.232-1.328c-1.067-1.098-1.601-2.33-1.601-3.699v-0.166C234.991,53.847,235.256,52.951,235.784,52.086
	 M245.714,41.032c-0.52,0.242-0.778,0.726-0.778,1.449v5.27c0,0.041-0.006,0.102-0.015,0.182c-0.128,0.322-0.333,0.483-0.617,0.483
	c-0.049,0-0.132-0.02-0.25-0.061c-1.313-0.824-2.658-1.238-4.039-1.238c-0.666,0-1.352,0.091-2.057,0.272
	c-0.93,0.292-1.674,0.654-2.232,1.087c-0.568,0.332-1.199,0.957-1.895,1.873c-0.931,1.409-1.396,2.889-1.396,4.439
	c0,1.65,0.45,3.145,1.352,4.484c0.45,0.693,1.043,1.318,1.777,1.872c1.37,0.966,2.805,1.449,4.304,1.449h0.221
	c1.292,0,2.56-0.382,3.804-1.147c0.196-0.131,0.362-0.196,0.499-0.196h0.03c0.283,0,0.489,0.171,0.616,0.513
	c0.265,0.555,0.651,0.831,1.161,0.831c0.146,0,0.308-0.03,0.483-0.091c0.539-0.271,0.809-0.659,0.809-1.163V42.18
	c0-0.11-0.034-0.267-0.103-0.468c-0.284-0.523-0.656-0.785-1.117-0.785h-0.102C246.062,40.927,245.91,40.963,245.714,41.032
	 M222.896,47.495c-0.284,0.222-0.426,0.599-0.426,1.133V61.1c0,0.283,0.024,0.488,0.073,0.619c0.137,0.342,0.343,0.589,0.617,0.74
	c0.206,0.09,0.377,0.136,0.514,0.136h0.133c0.264,0,0.514-0.105,0.749-0.317c0.303-0.221,0.455-0.613,0.455-1.178v-8.5
	c0-0.735,0.24-1.38,0.72-1.934c0.578-0.614,1.238-0.921,1.983-0.921c0.45,0,0.871,0.101,1.263,0.302
	c0.284,0.202,0.504,0.303,0.661,0.303c0.107,0,0.215-0.036,0.323-0.106c0.039,0,0.538-0.503,1.498-1.51
	c0-0.011-0.088-0.105-0.265-0.287c-1.058-0.875-2.203-1.313-3.437-1.313c-0.627,0-1.264,0.121-1.91,0.362
	c-0.353,0.172-0.582,0.256-0.69,0.256h-0.044c-0.117,0-0.235-0.034-0.353-0.104c-0.323-0.343-0.656-0.514-0.998-0.514
	C223.429,47.133,223.14,47.254,222.896,47.495 M210.308,55.755c0.539-0.534,1.102-0.801,1.689-0.801h4.45
	c0.039,0,0.093,0.005,0.161,0.015c0.284,0.142,0.426,0.338,0.426,0.59v0.075c-0.038,0.211-0.102,0.493-0.19,0.846
	c-0.411,1.177-1.097,2.079-2.056,2.702c-0.862,0.534-1.71,0.801-2.542,0.801h-0.249c-0.49,0-0.989-0.206-1.499-0.619
	c-0.567-0.564-0.852-1.193-0.852-1.887C209.646,56.862,209.867,56.288,210.308,55.755 M210.205,47.359
	c-0.372,0.282-0.559,0.634-0.559,1.057v0.106c0,0.231,0.088,0.473,0.265,0.725c0.284,0.331,0.597,0.498,0.94,0.498h3.334
	c0.636,0,1.077,0.065,1.322,0.196c0.254,0.08,0.563,0.302,0.925,0.664c0.333,0.413,0.515,0.766,0.544,1.057v0.062
	c0,0.12-0.04,0.231-0.118,0.332c-0.098,0.19-0.328,0.286-0.69,0.286h-4.156c-1.215,0-2.351,0.483-3.408,1.45
	c-0.989,1.087-1.483,2.29-1.483,3.608v0.166c0,0.705,0.177,1.439,0.529,2.205c0.146,0.332,0.44,0.755,0.881,1.269
	c1.037,1.036,2.213,1.555,3.525,1.555h0.19c0.607,0,1.308-0.116,2.101-0.348c0.49-0.161,0.926-0.347,1.308-0.559
	c0.45-0.292,0.744-0.438,0.881-0.438c0.313,0,0.534,0.181,0.661,0.544c0.244,0.533,0.642,0.8,1.189,0.8
	c0.206,0,0.427-0.065,0.662-0.196c0.391-0.302,0.587-0.659,0.587-1.072v-9.045c0-0.925-0.255-1.822-0.764-2.688
	c-0.146-0.292-0.471-0.685-0.97-1.178c-0.998-0.845-2.086-1.269-3.261-1.269h-3.789C210.646,47.147,210.43,47.218,210.205,47.359
	 M190.81,43.282c-0.461,0.343-1,0.891-1.617,1.646c-1.566,2.063-2.35,4.318-2.35,6.765c0,1.328,0.226,2.622,0.676,3.88
	c1.058,2.778,2.898,4.802,5.522,6.07c1.42,0.634,2.864,0.951,4.333,0.951c2.4,0,4.574-0.774,6.522-2.325
	c0.637-0.443,0.954-0.891,0.954-1.344v-5.919c0-0.131-0.029-0.272-0.088-0.423c-0.205-0.564-0.686-0.846-1.439-0.846h-5.67
	c-0.343,0-0.597,0.04-0.764,0.121c-0.519,0.281-0.778,0.685-0.778,1.208c0.039,0.291,0.088,0.474,0.146,0.543
	c0.216,0.514,0.681,0.771,1.396,0.771h3.379c0.156,0,0.293,0.021,0.411,0.061c0.567,0.241,0.852,0.654,0.852,1.237v1.888
	c0,0.463-0.21,0.846-0.631,1.148c-1.4,0.835-2.752,1.252-4.055,1.252h-0.382c-0.597,0-1.268-0.1-2.013-0.301
	c-1.126-0.322-2.184-0.917-3.172-1.783c-1.763-1.741-2.645-3.789-2.645-6.145c0-2.054,0.7-3.901,2.101-5.542
	c1.665-1.771,3.623-2.657,5.875-2.657h0.118c1.763,0,3.393,0.6,4.892,1.797c0.186,0.101,0.357,0.151,0.514,0.151h0.104
	c0.067,0,0.156-0.016,0.264-0.046c0.666-0.23,0.999-0.659,0.999-1.284c0-0.312-0.099-0.604-0.294-0.875
	c-1.998-1.58-4.167-2.37-6.507-2.37C194.985,40.912,192.768,41.702,190.81,43.282 M176.018,41.063
	c-0.471,0.202-0.705,0.634-0.705,1.298v18.815c0,0.241,0.02,0.443,0.059,0.604c0.255,0.543,0.626,0.815,1.116,0.815
	c0.216-0.021,0.372-0.056,0.47-0.105c0.461-0.212,0.69-0.649,0.69-1.313V42.36c0-0.231-0.02-0.432-0.059-0.603
	c-0.244-0.544-0.611-0.815-1.102-0.815C176.262,40.963,176.105,41.003,176.018,41.063 M163.15,55.755
	c0.538-0.534,1.102-0.801,1.689-0.801h4.45c0.039,0,0.093,0.005,0.161,0.015c0.284,0.142,0.427,0.338,0.427,0.59v0.075
	c-0.04,0.211-0.104,0.493-0.191,0.846c-0.411,1.177-1.097,2.079-2.056,2.702c-0.862,0.534-1.709,0.801-2.542,0.801h-0.249
	c-0.49,0-0.989-0.206-1.499-0.619c-0.567-0.564-0.852-1.193-0.852-1.887C162.489,56.862,162.71,56.288,163.15,55.755
	 M163.048,47.359c-0.373,0.282-0.559,0.634-0.559,1.057v0.106c0,0.231,0.088,0.473,0.265,0.725c0.284,0.331,0.597,0.498,0.94,0.498
	h3.334c0.637,0,1.077,0.065,1.321,0.196c0.255,0.08,0.563,0.302,0.926,0.664c0.333,0.413,0.515,0.766,0.544,1.057v0.062
	c0,0.12-0.04,0.231-0.118,0.332c-0.098,0.19-0.328,0.286-0.69,0.286h-4.156c-1.215,0-2.351,0.483-3.408,1.45
	c-0.989,1.087-1.483,2.29-1.483,3.608v0.166c0,0.705,0.177,1.439,0.528,2.205c0.147,0.332,0.441,0.755,0.882,1.269
	c1.038,1.036,2.213,1.555,3.525,1.555h0.19c0.607,0,1.308-0.116,2.101-0.348c0.489-0.161,0.926-0.347,1.308-0.559
	c0.45-0.292,0.744-0.438,0.881-0.438c0.313,0,0.534,0.181,0.661,0.544c0.245,0.533,0.642,0.8,1.189,0.8
	c0.206,0,0.427-0.065,0.661-0.196c0.392-0.302,0.588-0.659,0.588-1.072v-9.045c0-0.925-0.255-1.822-0.764-2.688
	c-0.146-0.292-0.471-0.685-0.97-1.178c-0.999-0.845-2.086-1.269-3.261-1.269h-3.789C163.488,47.147,163.272,47.218,163.048,47.359
	 M145.458,53.384c0.411-1.197,1.072-2.108,1.983-2.733c0.911-0.573,1.782-0.86,2.614-0.86h0.353c0.177,0,0.406,0.025,0.69,0.076
	c0.803,0.141,1.572,0.498,2.306,1.071c1.215,1.128,1.821,2.441,1.821,3.941c0,1.399-0.484,2.622-1.454,3.669
	c-1.027,0.997-2.179,1.495-3.451,1.495h-0.176c-1.313,0-2.493-0.529-3.54-1.586c-0.911-1.037-1.366-2.225-1.366-3.563
	C145.238,54.441,145.312,53.938,145.458,53.384 M143.431,47.254c-0.509,0.241-0.763,0.72-0.763,1.434v18.679
	c0,0.271,0.023,0.483,0.073,0.634c0.255,0.604,0.66,0.906,1.219,0.906c0.205,0,0.401-0.061,0.588-0.182
	c0.46-0.221,0.69-0.674,0.69-1.358v-5.33c0-0.362,0.195-0.579,0.587-0.649h0.103c0.05,0,0.143,0.03,0.28,0.091
	c1.263,0.806,2.644,1.208,4.142,1.208c0.783,0,1.659-0.182,2.629-0.544c0.656-0.261,1.254-0.604,1.792-1.026
	c0.265-0.151,0.705-0.589,1.322-1.313c1.126-1.48,1.689-3.101,1.689-4.862v-0.076c0-1.459-0.412-2.854-1.234-4.182
	c-0.499-0.815-1.189-1.545-2.07-2.189c-1.352-0.896-2.757-1.345-4.217-1.345c-1.136,0-2.271,0.277-3.407,0.831
	c-0.548,0.342-0.905,0.514-1.072,0.514h-0.059c-0.156-0.01-0.235-0.03-0.235-0.061c-0.117,0-0.27-0.223-0.455-0.665
	c-0.304-0.412-0.651-0.619-1.043-0.619C143.813,47.147,143.627,47.184,143.431,47.254 M122.353,47.435
	c0.235-0.473,0.77-1.111,1.602-1.918c1.577-1.268,3.236-1.902,4.979-1.902h0.323c1.557,0,3.045,0.509,4.465,1.525
	c0.226,0.091,0.71,0.539,1.455,1.344c1.243,1.61,1.865,3.343,1.865,5.194v0.211c0,1.46-0.401,2.875-1.205,4.244
	c-0.234,0.473-0.769,1.111-1.601,1.917c-1.577,1.269-3.236,1.902-4.979,1.902h-0.323c-1.557,0-3.046-0.509-4.466-1.524
	c-0.225-0.091-0.71-0.539-1.453-1.344c-1.244-1.611-1.866-3.343-1.866-5.195v-0.211C121.148,50.219,121.55,48.804,122.353,47.435
	 M126.848,41.229c-1.527,0.333-2.967,1.037-4.318,2.114l-0.661,0.589c-2.193,2.245-3.29,4.897-3.29,7.957
	c0,0.967,0.177,2.055,0.529,3.262c0.822,2.457,2.271,4.375,4.348,5.753c1.812,1.128,3.687,1.691,5.626,1.691
	c1.654,0,3.275-0.408,4.861-1.224c0.725-0.361,1.552-0.971,2.482-1.826c0.725-0.785,1.225-1.42,1.498-1.903
	c1.126-1.893,1.689-3.81,1.689-5.753c0-2.506-0.749-4.766-2.247-6.779c-0.284-0.393-0.789-0.926-1.514-1.601
	c-2.047-1.691-4.304-2.537-6.771-2.537C128.404,40.972,127.661,41.059,126.848,41.229"/>
</svg>
