<?xml version="1.0" encoding="utf-8"?>
<!-- Generator: Adobe Illustrator 16.0.0, SVG Export Plug-In . SVG Version: 6.00 Build 0)  -->
<!DOCTYPE svg PUBLIC "-//W3C//DTD SVG 1.1//EN" "http://www.w3.org/Graphics/SVG/1.1/DTD/svg11.dtd">
<svg version="1.1" id="Layer_1" xmlns="http://www.w3.org/2000/svg" xmlns:xlink="http://www.w3.org/1999/xlink" x="0px" y="0px"
	 width="25px" height="25px" viewBox="0 0 25 25" enable-background="new 0 0 25 25" xml:space="preserve">
<g>
	<path fill="#e9db7a" d="M12.501,1c6.34,0,11.498,5.159,11.498,11.5c0,6.342-5.158,11.502-11.498,11.502
		c-6.341,0-11.5-5.16-11.5-11.502C1.001,6.158,6.16,1,12.501,1 M12.501,0c-6.903,0-12.5,5.597-12.5,12.5
		c0,6.906,5.597,12.502,12.5,12.502c6.901,0,12.498-5.597,12.498-12.502C24.999,5.596,19.402,0,12.501,0L12.501,0z"/>
</g>
<g>
	<g>
		<path fill="#e9db7a" d="M17.509,12.996C17.509,12.996,17.509,12.996,17.509,12.996c0-0.001,0-0.001,0-0.002
			c0-0.095-0.043-0.18-0.111-0.241l-4.47-4.159c-0.142-0.131-0.37-0.131-0.512,0c-0.141,0.132-0.141,0.345,0,0.476l3.856,3.589
			H7.855c-0.2,0-0.362,0.15-0.362,0.336c0,0.187,0.162,0.337,0.362,0.337h8.42l-3.859,3.589c-0.141,0.131-0.141,0.344,0,0.476
			c0.142,0.131,0.37,0.131,0.512,0l4.475-4.162c0.028-0.026,0.047-0.058,0.064-0.089c0.004-0.007,0.011-0.012,0.014-0.02
			C17.499,13.085,17.509,13.041,17.509,12.996z"/>
	</g>
</g>
</svg>
