<?xml version="1.0" encoding="utf-8"?>
<!-- Generator: Adobe Illustrator 16.0.0, SVG Export Plug-In . SVG Version: 6.00 Build 0)  -->
<!DOCTYPE svg PUBLIC "-//W3C//DTD SVG 1.1//EN" "http://www.w3.org/Graphics/SVG/1.1/DTD/svg11.dtd">
<svg version="1.1" id="Layer_1" xmlns="http://www.w3.org/2000/svg" xmlns:xlink="http://www.w3.org/1999/xlink" x="0px" y="0px"
	 width="18px" height="16px" viewBox="0 0 18 16" enable-background="new 0 0 18 16" xml:space="preserve">
<g>
	<g>
		<path fill="#83BC41" d="M2.447,8.603v6.993c0,0-0.014,0.404,0.377,0.404c0.49,0,4.537-0.006,4.537-0.006l0.007-3.729
			c0,0-0.063-0.615,0.532-0.615h1.881c0.706,0,0.66,0.615,0.66,0.615l-0.007,3.72h4.439c0.501,0,0.479-0.502,0.479-0.502v-6.88
			L9.092,3.019L2.447,8.603z M9.146,0L0.001,8.083c0,0,0.563,1.045,1.795,0l7.351-6.239l6.896,6.2c1.425,1.032,1.957,0,1.957,0
			L9.146,0z M15.872,5.489V1.827h-1.771l0.006,2.159L15.872,5.489z"/>
	</g>
</g>
</svg>
