<?xml version="1.0" encoding="utf-8"?>
<!-- Generator: Adobe Illustrator 16.0.0, SVG Export Plug-In . SVG Version: 6.00 Build 0)  -->
<!DOCTYPE svg PUBLIC "-//W3C//DTD SVG 1.1//EN" "http://www.w3.org/Graphics/SVG/1.1/DTD/svg11.dtd">
<svg version="1.1" id="Layer_1" xmlns="http://www.w3.org/2000/svg" xmlns:xlink="http://www.w3.org/1999/xlink" x="0px" y="0px"
	 width="49px" height="47px" viewBox="0 0 49 47" enable-background="new 0 0 49 47" xml:space="preserve">
<g>
	<path fill="#DDE0DC" d="M32,1c7.72,0,14,6.28,14,14v17c0,7.72-6.28,14-14,14H15C7.28,46,1,39.72,1,32V15C1,7.28,7.28,1,15,1H32
		 M32,0H15C6.716,0,0,6.716,0,15v17c0,8.285,6.716,15,15,15h17c8.284,0,15-6.715,15-15V15C47,6.716,40.284,0,32,0L32,0z"/>
</g>
<g>
	<path fill-rule="evenodd" clip-rule="evenodd" fill="#A4CD75" d="M46.5,28.5c-2.757,0-5-2.243-5-5s2.243-5,5-5s5,2.243,5,5
		S49.257,28.5,46.5,28.5z"/>
	<path fill="#FFFFFF" d="M46.5,21c1.381,0,2.5,1.119,2.5,2.5S47.881,26,46.5,26S44,24.881,44,23.5S45.119,21,46.5,21 M46.5,16
		c-4.136,0-7.5,3.364-7.5,7.5s3.364,7.5,7.5,7.5s7.5-3.364,7.5-7.5S50.636,16,46.5,16L46.5,16z"/>
</g>
<g>
	<g>
		<path fill="#83BC41" d="M11.504,13.838v19.994h17.549l6.443-6.563V13.838H11.504z M29.535,30.537v-2.75h2.701L29.535,30.537z
			 M33.568,25.822h-5.961v6.045H13.432V15.78h11.967l-0.002,0.002h7.248l0.002-0.002h0.922V25.822z M14.941,30.084h7.377V29.17
			h-6.505v-4.477h1.539v-0.914h-1.539v-4.613h5.217v4.613h-1.079v0.914h2.367v-0.914h-0.415v-4.613h3.464v4.59h-0.008v0.023h-0.443
			v0.914h0.443v4.477h-0.443v0.914h1.316v-8.456l0.002-0.001v-3.365H14.941V30.084z"/>
	</g>
</g>
</svg>
