<?xml version="1.0" encoding="utf-8"?>
<!-- Generator: Adobe Illustrator 16.0.0, SVG Export Plug-In . SVG Version: 6.00 Build 0)  -->
<!DOCTYPE svg PUBLIC "-//W3C//DTD SVG 1.1//EN" "http://www.w3.org/Graphics/SVG/1.1/DTD/svg11.dtd">
<svg version="1.1" id="Layer_1" xmlns="http://www.w3.org/2000/svg" xmlns:xlink="http://www.w3.org/1999/xlink" x="0px" y="0px"
	 width="22px" height="20px" viewBox="0 0 22 20" enable-background="new 0 0 22 20" xml:space="preserve">
<path fill="#488a3f" d="M22,3.513c-0.81,0.341-1.681,0.571-2.593,0.676c0.932-0.531,1.647-1.372,1.984-2.374
	c-0.874,0.491-1.838,0.849-2.866,1.041C17.702,2.021,16.53,1.5,15.23,1.5c-2.493,0-4.514,1.921-4.514,4.292
	c0,0.338,0.041,0.664,0.117,0.979c-3.75-0.18-7.076-1.888-9.302-4.484C1.143,2.92,0.921,3.657,0.921,4.443
	c0,1.488,0.797,2.803,2.007,3.571C2.188,7.993,1.493,7.8,0.885,7.478c0,0.02,0,0.037,0,0.055c0,2.08,1.555,3.814,3.621,4.209
	c-0.379,0.099-0.777,0.151-1.189,0.151c-0.29,0-0.574-0.027-0.849-0.078c0.574,1.704,2.242,2.945,4.216,2.98
	c-1.545,1.151-3.491,1.837-5.606,1.837c-0.364,0-0.724-0.021-1.077-0.059C1.997,17.79,4.37,18.5,6.919,18.5
	c8.302,0,12.841-6.54,12.841-12.211c0-0.186-0.006-0.37-0.014-0.555C20.629,5.129,21.395,4.374,22,3.513L22,3.513z"/>
</svg>
