<?xml version="1.0" encoding="utf-8"?>
<!-- Generator: Adobe Illustrator 16.0.0, SVG Export Plug-In . SVG Version: 6.00 Build 0)  -->
<!DOCTYPE svg PUBLIC "-//W3C//DTD SVG 1.1//EN" "http://www.w3.org/Graphics/SVG/1.1/DTD/svg11.dtd">
<svg version="1.1" id="Layer_1" xmlns="http://www.w3.org/2000/svg" xmlns:xlink="http://www.w3.org/1999/xlink" x="0px" y="0px"
	 width="15px" height="14px" viewBox="0 0 15 14" enable-background="new 0 0 15 14" xml:space="preserve">
<path fill="#C7C8CA" d="M14.061,10.346c-0.576-0.604-1.149-1.199-1.707-1.772c-0.305-0.313-0.668-0.486-1.056-0.503
	c-0.389-0.019-0.769,0.123-1.097,0.404l-0.084,0.073C9.786,8.833,9.441,9.129,9.109,9.424C9.046,9.391,8.98,9.357,8.921,9.323
	C8.779,9.249,8.643,9.178,8.523,9.1C7.597,8.488,6.755,7.693,5.955,6.662c-0.39-0.5-0.656-0.94-0.837-1.382
	c0.295-0.247,0.583-0.5,0.866-0.747C6.055,4.471,6.13,4.407,6.201,4.344c0.692-0.602,0.728-1.418,0.098-2.081
	C6.106,2.061,5.907,1.856,5.718,1.66c-0.085-0.088-0.17-0.177-0.254-0.265C5.373,1.3,5.285,1.209,5.195,1.114
	C5.001,0.912,4.801,0.702,4.6,0.499c-0.303-0.31-0.67-0.481-1.055-0.498C3.159-0.015,2.777,0.124,2.449,0.405
	c-0.158,0.137-0.32,0.274-0.471,0.408C1.753,1.01,1.521,1.212,1.289,1.404C0.855,1.761,0.602,2.224,0.53,2.783
	C0.42,3.661,0.639,4.47,0.841,5.077c0.464,1.372,1.208,2.687,2.28,4.016c1.335,1.655,2.974,2.991,4.87,3.974
	c1.044,0.541,1.948,0.832,2.84,0.918c0.063,0.006,0.13,0.012,0.192,0.014c0.752,0.033,1.386-0.193,1.877-0.668
	c0.213-0.205,0.438-0.396,0.678-0.598c0.121-0.104,0.245-0.207,0.369-0.314C14.643,11.813,14.686,11.001,14.061,10.346z"/>
</svg>
