<?xml version="1.0" encoding="utf-8"?>
<!-- Generator: Adobe Illustrator 16.0.0, SVG Export Plug-In . SVG Version: 6.00 Build 0)  -->
<!DOCTYPE svg PUBLIC "-//W3C//DTD SVG 1.1//EN" "http://www.w3.org/Graphics/SVG/1.1/DTD/svg11.dtd">
<svg version="1.1" id="Layer_1" xmlns="http://www.w3.org/2000/svg" xmlns:xlink="http://www.w3.org/1999/xlink" x="0px" y="0px"
	 width="20px" height="20px" viewBox="0 0 20 20" enable-background="new 0 0 20 20" xml:space="preserve">
<path fill="#83BC41" d="M19.926,17.529c0,0-5.035-5.038-5.227-5.228c-0.117-0.12-0.413,0.012-0.76,0.257l-0.426-0.426
	c2.28-2.958,2.07-7.214-0.64-9.924c-2.947-2.944-7.719-2.946-10.666,0c-2.944,2.943-2.944,7.719,0,10.662
	c2.711,2.712,6.966,2.919,9.927,0.643l0.426,0.427c-0.249,0.344-0.38,0.638-0.259,0.756c0.228,0.229,5.229,5.231,5.229,5.231
	C18.051,20.443,20.448,18.051,19.926,17.529z M11.527,11.524c-2.199,2.194-5.773,2.194-7.969,0c-2.197-2.198-2.197-5.772,0-7.969
	C4.62,2.495,6.035,1.91,7.542,1.91c1.506,0,2.921,0.586,3.982,1.646C13.721,5.754,13.721,9.328,11.527,11.524z"/>
</svg>
