<?xml version="1.0" encoding="utf-8"?>
<!-- Generator: Adobe Illustrator 16.0.0, SVG Export Plug-In . SVG Version: 6.00 Build 0)  -->
<!DOCTYPE svg PUBLIC "-//W3C//DTD SVG 1.1//EN" "http://www.w3.org/Graphics/SVG/1.1/DTD/svg11.dtd">
<svg version="1.1" id="Layer_1" xmlns="http://www.w3.org/2000/svg" xmlns:xlink="http://www.w3.org/1999/xlink" x="0px" y="0px"
	 width="127px" height="64px" viewBox="36 18 127 64" enable-background="new 36 18 127 64" xml:space="preserve">
<g>
	<g>
		<defs>
			<rect id="SVGID_1_" x="36" y="18.016" width="127" height="64"/>
		</defs>
		<clipPath id="SVGID_2_">
			<use xlink:href="#SVGID_1_"  overflow="visible"/>
		</clipPath>
		<path clip-path="url(#SVGID_2_)" fill="#F58220" d="M159.727,73.422l0.259,0.049c0.564,0.194,0.85,0.512,0.85,0.987v0.081
			c-0.125,0.663-0.495,0.996-1.116,0.996h-3.425v-2.113H159.727L159.727,73.422z M154.132,71.672v9.899
			c0.032,0.226,0.186,0.385,0.409,0.442h1.336c0.215,0,0.371-0.162,0.417-0.498v-3.786h3.571c0.584,0,1.122-0.183,1.683-0.52
			c0.972-0.726,1.452-1.565,1.452-2.55v-0.363c0-0.424-0.143-0.905-0.432-1.449c-0.727-1.053-1.605-1.588-2.603-1.588h-5.425
			C154.317,71.297,154.164,71.424,154.132,71.672 M143.971,71.672v6.003c0,0.845,0.25,1.646,0.812,2.47
			c1.027,1.246,2.166,1.871,3.405,1.871h0.411c1.065,0,2.063-0.469,2.994-1.373c0.812-0.908,1.232-1.892,1.232-2.968v-6.003
			c-0.059-0.248-0.187-0.375-0.435-0.411h-1.314c-0.186,0-0.339,0.159-0.417,0.474v5.736c0,0.307-0.048,0.633-0.15,0.928
			c-0.491,0.961-1.178,1.408-2.075,1.408c-0.256,0-0.495-0.035-0.715-0.105c-1.056-0.404-1.598-1.154-1.598-2.23v-5.736
			c-0.049-0.314-0.206-0.474-0.411-0.474h-1.342C144.146,71.297,143.99,71.424,143.971,71.672 M136.398,74.859
			c0.494-0.946,1.156-1.438,2.071-1.438c0.266,0,0.515,0.063,0.696,0.125c1.069,0.398,1.595,1.141,1.595,2.238v1.688
			c0,0.305-0.031,0.631-0.155,0.928c-0.497,0.959-1.177,1.407-2.06,1.407c-0.29,0-0.518-0.035-0.694-0.104
			c-1.079-0.406-1.609-1.156-1.609-2.23v-1.688C136.242,75.484,136.278,75.16,136.398,74.859 M136.242,71.859
			c-1.448,1.01-2.187,2.25-2.187,3.688v2.128c0,0.845,0.267,1.646,0.827,2.47c1.021,1.246,2.149,1.871,3.404,1.871h0.439
			c1.014,0,2.006-0.469,2.991-1.373c0.815-0.908,1.24-1.892,1.24-2.968v-2.128c0-0.76-0.259-1.561-0.776-2.375
			c-1.021-1.252-2.193-1.91-3.455-1.91h-0.439C137.677,71.261,137.006,71.441,136.242,71.859 M129.885,73.422
			c0.687,0.119,1.061,0.465,1.061,1.035v0.205c-0.133,0.584-0.547,0.872-1.191,0.872h-3.326v-2.112H129.885z M124.244,71.672v9.899
			c0.049,0.226,0.206,0.385,0.427,0.442h1.287c0.263,0,0.4-0.182,0.47-0.521v-3.763h1.831l2.038,2.817
			c0.523,0.969,1.147,1.467,1.771,1.467h0.311c0.633-0.139,0.936-0.375,0.936-0.703v-0.18l-2.48-3.56l0.441-0.149
			c1.238-0.705,1.854-1.688,1.854-2.938c0-0.572-0.162-1.125-0.46-1.688c-0.726-1.002-1.598-1.537-2.633-1.537h-5.364
			C124.45,71.297,124.293,71.424,124.244,71.672 M116.048,71.859c-1.434,1.01-2.161,2.25-2.161,3.688v2.128
			c0,0.845,0.292,1.646,0.8,2.47c1.05,1.246,2.172,1.871,3.43,1.871h4.227c0.25-0.06,0.38-0.219,0.415-0.443v-5.609
			c0-0.217-0.136-0.354-0.477-0.428h-3.388c-0.423,0.021-0.62,0.201-0.62,0.51v0.252c0.258,0.982,0.815,1.46,1.701,1.46h0.623v2.051
			h-2.181c-0.25,0-0.499-0.024-0.687-0.073c-1.121-0.412-1.683-1.175-1.683-2.262v-1.688c0-0.238,0.029-0.463,0.11-0.676
			c0.389-1.112,1.137-1.688,2.259-1.688h2.742l0.437-0.029c0.794-0.352,1.162-0.848,1.162-1.473v-0.248
			c-0.035-0.248-0.165-0.375-0.415-0.411h-4.227C117.526,71.261,116.806,71.441,116.048,71.859"/>
	</g>
	<g>
		<defs>
			<rect id="SVGID_3_" x="36" y="18.016" width="127" height="64"/>
		</defs>
		<clipPath id="SVGID_4_">
			<use xlink:href="#SVGID_3_"  overflow="visible"/>
		</clipPath>
		<path clip-path="url(#SVGID_4_)" fill="#015BA6" d="M98.915,71.547v10.025c0.041,0.225,0.184,0.384,0.404,0.443h1.335
			c0.205,0,0.363-0.164,0.415-0.498v-3.865h4.566v3.865c0.051,0.334,0.19,0.498,0.38,0.498h1.369
			c0.226-0.061,0.374-0.219,0.383-0.443v-8.904l-0.009-0.309c-0.312-0.813-0.828-1.25-1.506-1.25h-0.237
			c-0.189,0-0.329,0.188-0.38,0.492v3.842h-4.566v-2.755l-0.042-0.394c-0.365-0.791-0.85-1.186-1.464-1.186h-0.245
			C99.098,71.172,98.956,71.297,98.915,71.547 M88.752,71.672v9.899c0.046,0.226,0.186,0.384,0.417,0.442h1.335
			c0.219,0,0.348-0.162,0.411-0.498v-6.152l3.959,5.434c0.497,0.813,0.818,1.217,1.005,1.217h1.331
			c0.235-0.06,0.377-0.217,0.425-0.442v-9.899c-0.046-0.25-0.188-0.375-0.425-0.411H95.88c-0.197,0-0.348,0.159-0.415,0.474v6.167
			l-3.833-5.313c-0.53-0.905-1.084-1.327-1.655-1.327H89.17C88.938,71.297,88.798,71.422,88.752,71.672 M83.716,76.588v0.022h-1.155
			l0.532-1.528C83.155,75.16,83.352,75.658,83.716,76.588 M82.138,71.484c-2.426,6.543-3.625,9.836-3.625,9.938v0.15
			c0.036,0.225,0.187,0.384,0.413,0.443h1.384c0.104,0,0.212-0.094,0.333-0.219c0.05-0.063,0.424-1.063,1.092-3.005h2.792
			l0.861,2.101c0.195,0.748,0.438,1.123,0.728,1.123h1.346c0.237-0.061,0.379-0.219,0.426-0.443v-0.181l-3.418-8.848
			c-0.442-0.861-1.019-1.247-1.749-1.247h-0.249C82.387,71.297,82.283,71.359,82.138,71.484 M67.27,71.887v0.158l0.023,0.124
			c0,0.044,1.184,1.565,3.553,4.52l-0.031,0.092L68.2,80.145c-0.62,0.715-0.93,1.152-0.93,1.349
			c0.055,0.339,0.209,0.522,0.479,0.522h1.58l0.186-0.078c0.089-0.049,0.99-1.203,2.722-3.412l2.057,2.583
			c0.397,0.585,0.686,0.907,0.865,0.907h1.578c0.28,0,0.434-0.184,0.476-0.522l-0.05-0.226l-3.521-4.533l2.733-3.5
			c0.569-0.688,0.839-1.064,0.839-1.189v-0.158c-0.041-0.225-0.189-0.383-0.415-0.443h-1.577l-0.23,0.081
			c-0.156,0.146-1.068,1.272-2.742,3.455l-1.815-2.312c-0.523-0.809-1.053-1.225-1.614-1.225h-1.122
			C67.462,71.504,67.32,71.662,67.27,71.887 M52.521,71.672v0.248l0.028,0.25c0.31,0.861,0.845,1.252,1.586,1.252h1.739v8.096
			c0.062,0.334,0.2,0.498,0.425,0.498h1.315c0.228,0,0.361-0.164,0.422-0.498v-8.096h1.746l0.436-0.03
			c0.787-0.351,1.175-0.845,1.175-1.472v-0.248c-0.048-0.25-0.186-0.375-0.427-0.411h-8.017
			C52.708,71.297,52.57,71.422,52.521,71.672 M50.129,76.588v0.022h-1.144l0.528-1.528C49.562,75.16,49.778,75.658,50.129,76.588
			 M48.559,71.484c-2.427,6.543-3.642,9.836-3.642,9.938v0.15c0.037,0.225,0.187,0.384,0.415,0.443h1.392
			c0.094,0,0.218-0.094,0.343-0.219c0.061-0.063,0.42-1.063,1.091-3.005h2.8l0.837,2.101c0.196,0.748,0.437,1.123,0.726,1.123h1.371
			c0.225-0.061,0.373-0.219,0.416-0.443v-0.181L50.9,72.544c-0.452-0.861-1.04-1.247-1.749-1.247h-0.258
			C48.807,71.297,48.688,71.359,48.559,71.484 M40.367,73.422c0.242,0,0.459,0.049,0.686,0.119c1.102,0.381,1.652,1.131,1.652,2.244
			v1.686c0,0.223-0.032,0.451-0.091,0.68c-0.38,1.123-1.137,1.656-2.247,1.656h-2.202v-6.385H40.367L40.367,73.422z M36,71.672
			v9.899c0.035,0.226,0.19,0.384,0.411,0.442h4.236c1.046,0,2.044-0.467,2.992-1.372c0.821-0.907,1.246-1.894,1.246-2.967v-2.128
			c0-0.761-0.258-1.563-0.778-2.375c-1.009-1.254-2.182-1.912-3.459-1.912h-4.236C36.19,71.297,36.035,71.422,36,71.672"/>
	</g>
	<g>
		<defs>
			<rect id="SVGID_5_" x="36" y="18.016" width="127" height="64"/>
		</defs>
		<clipPath id="SVGID_6_">
			<use xlink:href="#SVGID_5_"  overflow="visible"/>
		</clipPath>
		<path clip-path="url(#SVGID_6_)" fill="#00AEEF" d="M115.261,46.938c0.501-0.781,0.725-1.442,0.912-2.125l-6.929-11.094
			c-0.037,0.163-0.052,0.17-0.104,0.344c-0.781,3.219-2.752,7.714-11.306,12.594C77.75,58.152,75.551,59.324,72.976,60.709
			c0,0,9.737-2.32,30.547-7.295C109.241,52.043,113.431,49.858,115.261,46.938"/>
	</g>
	<g>
		<defs>
			<rect id="SVGID_7_" x="36" y="18.016" width="127" height="64"/>
		</defs>
		<clipPath id="SVGID_8_">
			<use xlink:href="#SVGID_7_"  overflow="visible"/>
		</clipPath>
		<path clip-path="url(#SVGID_8_)" fill="#F58220" d="M126.021,60.713l-8.685-14.021c-0.166,0.416-0.338,0.732-0.603,1.153
			c-2.045,3.297-6.251,5.846-12.465,7.091c-19.586,3.946-22.909,4.356-31.294,5.772L126.021,60.713z"/>
	</g>
	<g>
		<defs>
			<rect id="SVGID_9_" x="36" y="18.016" width="127" height="64"/>
		</defs>
		<clipPath id="SVGID_10_">
			<use xlink:href="#SVGID_9_"  overflow="visible"/>
		</clipPath>
		<path clip-path="url(#SVGID_10_)" fill="#015BA6" d="M72.975,60.709c0,0,6.784-4.662,24.017-15.519
			c5.661-3.565,9.507-7.375,10.58-11.565c0.219-0.857,0.311-1.479,0.312-2.164l-8.384-13.446L72.975,60.709z"/>
	</g>
</g>
</svg>
