<?xml version="1.0" encoding="utf-8"?>
<!-- Generator: Adobe Illustrator 16.0.0, SVG Export Plug-In . SVG Version: 6.00 Build 0)  -->
<!DOCTYPE svg PUBLIC "-//W3C//DTD SVG 1.1//EN" "http://www.w3.org/Graphics/SVG/1.1/DTD/svg11.dtd">
<svg version="1.1" id="Layer_1" xmlns="http://www.w3.org/2000/svg" xmlns:xlink="http://www.w3.org/1999/xlink" x="0px" y="0px"
	 width="199px" height="100px" viewBox="0 0 199 100" enable-background="new 0 0 199 100" xml:space="preserve">
<g>
	<defs>
		<rect id="SVGID_1_" y="0.015" width="199" height="100"/>
	</defs>
	<clipPath id="SVGID_2_">
		<use xlink:href="#SVGID_1_"  overflow="visible"/>
	</clipPath>
	<path clip-path="url(#SVGID_2_)" fill="#F58220" d="M193.855,86.597l0.401,0.058c0.915,0.299,1.344,0.794,1.344,1.549v0.116
		c-0.197,1.05-0.777,1.559-1.752,1.559h-5.367v-3.281H193.855z M185.106,83.845v15.48c0.041,0.363,0.272,0.596,0.633,0.689h2.088
		c0.343,0,0.571-0.268,0.654-0.779v-5.93h5.604c0.915,0,1.752-0.287,2.63-0.802c1.523-1.127,2.285-2.444,2.285-3.991v-0.542
		c0-0.667-0.229-1.43-0.679-2.291c-1.149-1.649-2.522-2.466-4.084-2.466h-8.498C185.379,83.253,185.147,83.482,185.106,83.845
		 M169.171,83.845v9.404c0,1.302,0.389,2.56,1.265,3.841c1.622,1.949,3.399,2.925,5.343,2.925h0.659
		c1.665,0,3.228-0.745,4.689-2.146c1.271-1.42,1.94-2.946,1.94-4.62v-9.404c-0.095-0.362-0.293-0.592-0.682-0.631h-2.063
		c-0.311,0-0.544,0.23-0.658,0.746v8.945c0,0.481-0.084,0.985-0.255,1.455c-0.743,1.489-1.849,2.216-3.243,2.216
		c-0.396,0-0.777-0.07-1.103-0.175c-1.657-0.64-2.516-1.807-2.516-3.496V83.96c-0.083-0.516-0.313-0.746-0.657-0.746h-2.085
		C169.444,83.253,169.215,83.482,169.171,83.845 M157.313,88.835c0.777-1.492,1.827-2.238,3.237-2.238
		c0.439,0,0.801,0.078,1.086,0.171c1.704,0.642,2.513,1.806,2.513,3.501v2.637c0,0.481-0.054,0.985-0.229,1.455
		c-0.777,1.489-1.846,2.216-3.257,2.216c-0.433,0-0.801-0.07-1.084-0.175c-1.681-0.64-2.516-1.807-2.516-3.496v-2.637
		C157.064,89.801,157.122,89.293,157.313,88.835 M157.064,84.133c-2.274,1.604-3.434,3.533-3.434,5.792v3.324
		c0,1.302,0.44,2.56,1.319,3.841c1.586,1.949,3.351,2.925,5.313,2.925h0.688c1.612,0,3.17-0.745,4.687-2.146
		c1.275-1.42,1.946-2.946,1.946-4.62v-3.324c0-1.216-0.401-2.438-1.201-3.729c-1.621-1.971-3.431-2.981-5.432-2.981h-0.688
		C159.322,83.214,158.274,83.5,157.064,84.133 M147.119,86.597c1.063,0.163,1.644,0.72,1.644,1.606v0.31
		c-0.216,0.936-0.842,1.365-1.873,1.365h-5.2v-3.281H147.119z M138.269,83.845v15.48c0.085,0.363,0.313,0.596,0.675,0.689h2.002
		c0.431,0,0.639-0.288,0.744-0.803v-5.906h2.856l3.203,4.414c0.825,1.516,1.791,2.295,2.766,2.295h0.489
		c1.013-0.21,1.487-0.586,1.487-1.09v-0.286l-3.887-5.563l0.688-0.229c1.944-1.118,2.913-2.645,2.913-4.584
		c0-0.92-0.268-1.759-0.742-2.642c-1.145-1.591-2.504-2.407-4.117-2.407h-8.403C138.582,83.253,138.354,83.482,138.269,83.845
		 M125.442,84.133c-2.27,1.604-3.394,3.533-3.394,5.792v3.324c0,1.302,0.439,2.56,1.259,3.841c1.618,1.949,3.407,2.925,5.372,2.925
		h6.63c0.361-0.094,0.592-0.326,0.627-0.689v-8.773c0-0.323-0.207-0.55-0.744-0.674h-5.311c-0.67,0.056-0.974,0.342-0.974,0.792v0.4
		c0.4,1.537,1.275,2.295,2.685,2.295h0.973v3.211h-3.428c-0.389,0-0.766-0.059-1.088-0.117c-1.733-0.65-2.607-1.834-2.607-3.554
		v-2.637c0-0.367,0.033-0.708,0.149-1.036c0.628-1.736,1.794-2.636,3.546-2.636h4.284l0.687-0.056
		c1.248-0.562,1.828-1.34,1.828-2.316v-0.38c-0.035-0.362-0.266-0.592-0.627-0.631h-6.63
		C127.737,83.214,126.627,83.5,125.442,84.133"/>
	<path clip-path="url(#SVGID_2_)" fill="#015BA6" d="M98.579,83.641v15.685c0.067,0.362,0.29,0.595,0.634,0.689h2.112
		c0.312,0,0.54-0.268,0.627-0.779v-6.044h7.146v6.044c0.085,0.512,0.314,0.779,0.626,0.779h2.115
		c0.364-0.095,0.586-0.327,0.627-0.689V85.394l-0.041-0.457c-0.489-1.296-1.29-1.95-2.356-1.95h-0.345
		c-0.312,0-0.541,0.265-0.626,0.744v6.021h-7.146v-4.302l-0.057-0.639c-0.562-1.213-1.328-1.824-2.297-1.824h-0.386
		C98.868,83.055,98.646,83.254,98.579,83.641 M82.658,83.845v15.48c0.082,0.362,0.292,0.595,0.665,0.689H85.4
		c0.342,0,0.545-0.268,0.655-0.779v-9.598l6.205,8.482c0.762,1.263,1.277,1.895,1.571,1.895h2.088
		c0.361-0.095,0.591-0.327,0.656-0.689v-15.48c-0.064-0.364-0.294-0.591-0.656-0.631h-2.088c-0.313,0-0.542,0.23-0.655,0.746v9.621
		l-6.003-8.302c-0.829-1.397-1.695-2.065-2.601-2.065h-1.249C82.95,83.254,82.739,83.48,82.658,83.845 M74.771,91.529v0.058h-1.819
		l0.847-2.408C73.897,89.293,74.202,90.072,74.771,91.529 M72.299,83.559c-3.804,10.219-5.69,15.375-5.69,15.538v0.229
		c0.068,0.362,0.292,0.595,0.658,0.689h2.161c0.165,0,0.336-0.135,0.528-0.344c0.084-0.087,0.654-1.655,1.711-4.706h4.374
		l1.345,3.295c0.301,1.169,0.686,1.755,1.143,1.755h2.115c0.361-0.095,0.591-0.327,0.656-0.689v-0.286L75.956,85.2
		c-0.699-1.318-1.602-1.949-2.739-1.949h-0.389C72.689,83.251,72.518,83.349,72.299,83.559 M49.004,84.191v0.229l0.029,0.194
		c0,0.079,1.857,2.452,5.573,7.086l-0.046,0.127l-4.096,5.263c-0.973,1.129-1.46,1.797-1.46,2.122
		c0.078,0.515,0.316,0.803,0.744,0.803h2.48l0.292-0.113c0.142-0.083,1.555-1.872,4.26-5.345l3.222,4.026
		c0.627,0.935,1.074,1.432,1.36,1.432h2.476c0.428,0,0.667-0.288,0.744-0.803l-0.085-0.367l-5.517-7.086l4.287-5.446
		c0.887-1.109,1.316-1.698,1.316-1.893v-0.229c-0.068-0.365-0.296-0.594-0.658-0.689h-2.464l-0.364,0.116
		c-0.248,0.217-1.677,1.983-4.288,5.389l-2.856-3.613c-0.812-1.24-1.64-1.892-2.517-1.892h-1.772
		C49.302,83.598,49.073,83.826,49.004,84.191 M25.896,83.845v0.38l0.033,0.39c0.485,1.354,1.324,1.982,2.486,1.982h2.728v12.639
		c0.097,0.512,0.32,0.779,0.673,0.779h2.057c0.352,0,0.573-0.268,0.669-0.779V86.597h2.733l0.669-0.057
		c1.245-0.561,1.846-1.337,1.846-2.315v-0.38c-0.067-0.364-0.292-0.591-0.658-0.631H26.558
		C26.188,83.254,25.967,83.48,25.896,83.845 M22.148,91.529v0.058H20.35l0.828-2.408C21.263,89.293,21.597,90.072,22.148,91.529
		 M19.677,83.559c-3.79,10.219-5.704,15.375-5.704,15.538v0.229c0.068,0.362,0.296,0.595,0.658,0.689h2.173
		c0.152,0,0.346-0.135,0.541-0.344c0.088-0.087,0.66-1.655,1.717-4.706h4.374l1.314,3.295c0.305,1.169,0.684,1.755,1.146,1.755
		h2.137c0.364-0.095,0.583-0.327,0.661-0.689v-0.286L23.349,85.2c-0.705-1.318-1.629-1.949-2.744-1.949h-0.399
		C20.066,83.251,19.881,83.349,19.677,83.559 M6.851,86.597c0.371,0,0.712,0.058,1.067,0.163c1.733,0.602,2.601,1.786,2.601,3.509
		v2.636c0,0.362-0.059,0.707-0.144,1.066c-0.61,1.756-1.79,2.605-3.524,2.605h-3.45v-9.979H6.851z M0,83.845v15.48
		c0.065,0.362,0.296,0.595,0.658,0.689h6.629c1.639,0,3.202-0.746,4.688-2.146c1.289-1.42,1.944-2.948,1.944-4.619v-3.326
		c0-1.215-0.399-2.438-1.202-3.729c-1.592-1.971-3.421-2.981-5.431-2.981H0.658C0.296,83.254,0.065,83.48,0,83.845"/>
	<path clip-path="url(#SVGID_2_)" fill="#00AEEF" d="M124.199,45.209c0.783-1.219,1.126-2.262,1.407-3.317l-10.85-17.344
		c-0.038,0.263-0.063,0.271-0.141,0.537c-1.24,5.038-4.332,12.051-17.717,19.691C65.421,62.723,61.98,64.562,57.943,66.72
		c0,0,15.249-3.62,47.875-11.407C114.753,53.168,121.326,49.77,124.199,45.209"/>
	<path clip-path="url(#SVGID_2_)" fill="#F58220" d="M141.059,66.724L127.44,44.829c-0.246,0.644-0.515,1.137-0.943,1.804
		c-3.189,5.142-9.797,9.133-19.514,11.081c-30.692,6.161-35.904,6.782-49.042,9.006L141.059,66.724z"/>
	<path clip-path="url(#SVGID_2_)" fill="#015BA6" d="M57.942,66.72c0,0,10.632-7.292,37.623-24.237
		c8.889-5.578,14.891-11.523,16.591-18.076c0.332-1.342,0.46-2.315,0.472-3.387L99.499,0.015L57.942,66.72z"/>
</g>
</svg>
