<?xml version="1.0" encoding="utf-8"?>
<!-- Generator: Adobe Illustrator 18.1.0, SVG Export Plug-In . SVG Version: 6.00 Build 0)  -->
<svg version="1.1" id="Layer_1" xmlns="http://www.w3.org/2000/svg" xmlns:xlink="http://www.w3.org/1999/xlink" x="0px" y="0px"
	 viewBox="0 0 132.9 70" enable-background="new 0 0 132.9 70" xml:space="preserve">
<linearGradient id="SVGID_1_" gradientUnits="userSpaceOnUse" x1="74.6438" y1="3.237801e-10" x2="74.6438" y2="35.8045">
	<stop  offset="0" style="stop-color:#A9CF38"/>
	<stop  offset="0.1381" style="stop-color:#9EC338"/>
	<stop  offset="0.3451" style="stop-color:#84AC39"/>
	<stop  offset="0.5954" style="stop-color:#5F8C38"/>
	<stop  offset="0.8769" style="stop-color:#2B6731"/>
	<stop  offset="1" style="stop-color:#06582D"/>
</linearGradient>
<path fill="url(#SVGID_1_)" d="M71.8,35.8c-0.2-0.3-0.3-0.7-0.4-1c0,0,0,0,0,0c-0.1-0.3-0.2-0.6-0.3-0.9c-0.1-0.2-0.1-0.4-0.1-0.6
	c0-0.2-0.1-0.4-0.1-0.7c0-0.2,0-0.4-0.1-0.6c0-0.2,0-0.5,0-0.7c0,0,0,0,0,0c0-0.4,0-0.8,0.1-1.2c0-0.1,0-0.2,0.1-0.3
	c0.1-0.4,0.1-0.8,0.3-1.2c0,0,0-0.1,0-0.1c0.4-1.2,1-2.4,1.7-3.4c0.2-0.3,0.4-0.5,0.6-0.8c2.2-2.7,10.9-12.2,5.6-24.3
	C71.6,6,63.8,23.3,71.8,35.8"/>
<path fill="#3D6D34" d="M75.2,22.2c2-2.5,4.3-6.2,5.2-10.5c-3.6,3.9-6.5,8.9-8.8,15.7C72.8,24.7,74.6,23.1,75.2,22.2"/>
<linearGradient id="SVGID_2_" gradientUnits="userSpaceOnUse" x1="67.9777" y1="9.7544" x2="67.9777" y2="40.5178">
	<stop  offset="0" style="stop-color:#A9CF38"/>
	<stop  offset="0.1381" style="stop-color:#9EC338"/>
	<stop  offset="0.3451" style="stop-color:#84AC39"/>
	<stop  offset="0.5954" style="stop-color:#5F8C38"/>
	<stop  offset="0.8769" style="stop-color:#2B6731"/>
	<stop  offset="1" style="stop-color:#06582D"/>
</linearGradient>
<path fill="url(#SVGID_2_)" d="M76.1,40.5c-0.4-0.3-0.7-0.5-1.1-0.8c0,0-0.1,0-0.1-0.1c-0.2-0.2-0.4-0.4-0.6-0.5
	c-0.2-0.2-0.3-0.3-0.5-0.5c-0.2-0.2-0.3-0.4-0.5-0.5c-0.1-0.1-0.2-0.3-0.3-0.4c-0.2-0.2-0.3-0.4-0.5-0.6c-0.1-0.1-0.2-0.3-0.3-0.4
	c-0.1-0.2-0.3-0.4-0.4-0.6c-0.2-0.3-0.3-0.6-0.4-0.9c0,0,0-0.1,0-0.1c-0.4-0.9-0.6-1.9-0.7-2.9c0-0.2-0.1-0.4-0.1-0.6
	c-0.2-3.2,2.3-15.7-10.3-21.7C59.1,14.8,58.1,29.6,76.1,40.5"/>
<path fill="#3D6D34" d="M69,18c-1.2,6-0.7,12.4,2.8,17.8c-0.2-0.3-0.3-0.7-0.4-1c0,0,0,0,0,0c-0.1-0.3-0.2-0.6-0.3-0.9
	c0-0.1,0-0.2-0.1-0.3c0-0.1,0-0.1,0-0.2c0-0.1,0-0.1,0-0.2c0-0.2-0.1-0.4-0.1-0.7c0-0.2,0-0.4,0-0.5c0,0,0,0,0,0
	c0-0.2-0.1-0.4-0.1-0.6C70.7,29.4,71.6,23.5,69,18"/>
<linearGradient id="SVGID_3_" gradientUnits="userSpaceOnUse" x1="66.4514" y1="26.2214" x2="66.4514" y2="43.0916">
	<stop  offset="0" style="stop-color:#A9CF38"/>
	<stop  offset="0.1381" style="stop-color:#9EC338"/>
	<stop  offset="0.3451" style="stop-color:#84AC39"/>
	<stop  offset="0.5954" style="stop-color:#5F8C38"/>
	<stop  offset="0.8769" style="stop-color:#2B6731"/>
	<stop  offset="1" style="stop-color:#06582D"/>
</linearGradient>
<path fill="url(#SVGID_3_)" d="M50.1,26.2c2.1,4.5,9.9,16.7,32.8,16.8c0,0,0-0.1,0-0.2c-2.3-0.3-4.3-1-6.1-2.1
	c-0.2-0.1-0.4-0.3-0.6-0.4c0,0,0,0,0,0c-0.6-0.4-1.2-0.9-1.7-1.4c-0.2-0.2-0.4-0.4-0.5-0.6c0,0,0,0-0.1-0.1c0,0,0,0,0,0
	c-0.6-0.7-1.1-1.4-1.6-2.2c-2.6-3.7-7.6-9.9-20.7-9.9C51,26.2,50.5,26.2,50.1,26.2"/>
<path fill="#3D6D34" d="M75.2,39.8c-0.1,0-0.1-0.1-0.2-0.1c0,0,0,0,0,0c-0.2-0.2-0.4-0.4-0.6-0.5c0,0,0,0,0,0c0,0-0.1-0.1-0.1-0.1
	c-0.1-0.1-0.1-0.1-0.2-0.2c-0.1-0.1-0.1-0.1-0.2-0.2c-0.1-0.1-0.1-0.1-0.2-0.2c0,0,0,0,0,0c0,0,0,0-0.1-0.1c0,0,0,0,0,0c0,0,0,0,0,0
	c-0.1-0.1-0.1-0.2-0.2-0.2c-0.1-0.1-0.2-0.3-0.3-0.4c-0.1-0.1-0.2-0.2-0.3-0.4c0,0,0,0,0,0c-0.1-0.1-0.1-0.2-0.2-0.2
	c-0.1-0.1-0.2-0.3-0.3-0.4c-0.1-0.2-0.2-0.3-0.3-0.5c0,0,0,0,0,0c-1.5-2.2-3.9-5.3-8.4-7.4c2.5,4,6.4,8.1,12.4,11.8
	C75.8,40.3,75.5,40,75.2,39.8"/>
<path fill="#488A3F" d="M122.4,52.8c-0.2,0.2-0.3,0.5-0.3,0.9v10c0,0.4,0.1,0.7,0.3,0.9c0.2,0.2,0.5,0.3,0.8,0.3
	c0.3,0,0.5-0.1,0.7-0.2c0.3-0.2,0.4-0.5,0.4-1v-5.4c0-0.5,0-0.8,0.1-1c0.1-0.6,0.4-1.1,0.8-1.5c0.7-0.7,1.5-1.1,2.5-1.1
	c0.3,0,0.7,0.1,1.1,0.2c0.9,0.3,1.5,0.9,1.9,1.7c0.2,0.4,0.3,1,0.3,1.7v5.4c0,0.4,0.1,0.7,0.3,0.9c0.2,0.2,0.5,0.3,0.8,0.3
	c0.3,0,0.5-0.1,0.7-0.2c0.3-0.2,0.4-0.5,0.4-1v-5.5c0-1-0.2-1.9-0.5-2.5c-0.1-0.4-0.4-0.8-0.8-1.3c-1.1-1.2-2.5-1.9-4.1-1.9
	c-0.8,0-1.6,0.2-2.4,0.6c-0.3,0.2-0.5,0.2-0.6,0.2c-0.2,0-0.4-0.1-0.5-0.3c-0.2-0.3-0.5-0.5-0.9-0.5
	C122.9,52.5,122.7,52.6,122.4,52.8 M111.5,55.7c0.9-0.7,1.8-1.1,2.7-1.1h0.2c0.6,0,1.2,0.2,1.9,0.5c0.2,0.1,0.2,0.2,0.2,0.4v0.1
	c0,0.1-0.1,0.3-0.2,0.4c-3.2,2.3-4.8,3.5-4.9,3.5c-0.3,0.3-0.6,0.4-0.7,0.4c-0.2,0-0.3,0-0.4-0.1c-0.1-0.1-0.2-0.4-0.2-1
	C110.2,57.6,110.6,56.6,111.5,55.7 M110.6,53.7c-0.2,0.1-0.5,0.4-1,0.9c-1,1.2-1.5,2.6-1.5,4.1c0,0.8,0.2,1.6,0.5,2.5
	c0.2,0.3,0.4,0.7,0.6,1.1c0.4,0.5,0.8,1,1.4,1.4c1.2,0.8,2.4,1.2,3.6,1.2h0.2c0.7,0,1.5-0.2,2.2-0.5c0.4-0.1,0.9-0.4,1.4-0.8
	c0.3-0.2,0.7-0.6,1.1-1c0.4-0.5,0.7-0.9,0.8-1.3c0.3-0.7,0.4-1.2,0.4-1.5v0c0-0.1,0-0.2-0.1-0.3c-0.2-0.5-0.5-0.7-1-0.7
	c-0.3,0-0.5,0.1-0.7,0.3c-0.1,0.2-0.3,0.4-0.3,0.8c-0.1,0.4-0.3,0.7-0.4,0.9c-0.1,0.2-0.3,0.5-0.8,1c-0.8,0.7-1.7,1-2.6,1h-0.2
	c-0.6,0-1.2-0.2-1.9-0.5c-0.2-0.1-0.3-0.2-0.3-0.4v-0.1c0-0.1,0-0.2,0.1-0.3c0.7-0.5,1-0.7,1-0.7c3.9-2.8,5.9-4.2,6-4.3
	c0.2-0.2,0.4-0.5,0.4-0.8c0,0,0-0.1,0-0.1c0-0.3-0.2-0.6-0.7-1.2c-1.3-1.3-2.8-2-4.5-2C113,52.5,111.7,52.9,110.6,53.7 M96.8,56.5
	c0.1-0.2,0.4-0.5,0.7-0.9c0.8-0.7,1.7-1,2.6-1h0.2c0.9,0,1.8,0.4,2.7,1.1c0.9,0.9,1.3,1.9,1.3,3v0.1c0,0.7-0.2,1.5-0.7,2.2
	c-0.1,0.2-0.4,0.5-0.8,0.9c-0.8,0.7-1.7,1-2.6,1h-0.2c-0.9,0-1.8-0.4-2.7-1.1c-0.9-0.9-1.3-1.9-1.3-3v-0.1
	C96.1,57.9,96.3,57.2,96.8,56.5 M105,47.6c-0.4,0.2-0.6,0.6-0.6,1.2V53c0,0,0,0.1,0,0.1c-0.1,0.3-0.3,0.4-0.5,0.4c0,0-0.1,0-0.2,0
	c-1.1-0.7-2.2-1-3.3-1c-0.6,0-1.1,0.1-1.7,0.2c-0.8,0.2-1.4,0.5-1.8,0.9c-0.5,0.3-1,0.8-1.6,1.5c-0.8,1.1-1.2,2.3-1.2,3.6
	c0,1.3,0.4,2.5,1.1,3.6c0.4,0.6,0.9,1.1,1.5,1.5c1.1,0.8,2.3,1.2,3.6,1.2h0.2c1.1,0,2.1-0.3,3.1-0.9c0.2-0.1,0.3-0.2,0.4-0.2h0
	c0.2,0,0.4,0.1,0.5,0.4c0.2,0.4,0.5,0.7,1,0.7c0.1,0,0.3,0,0.4-0.1c0.4-0.2,0.7-0.5,0.7-0.9V48.5c0-0.1,0-0.2-0.1-0.4
	c-0.2-0.4-0.5-0.6-0.9-0.6h-0.1C105.2,47.5,105.1,47.6,105,47.6 M86.1,52.8c-0.2,0.2-0.4,0.5-0.4,0.9v10c0,0.2,0,0.4,0.1,0.5
	c0.1,0.3,0.3,0.5,0.5,0.6c0.2,0.1,0.3,0.1,0.4,0.1h0.1c0.2,0,0.4-0.1,0.6-0.3c0.3-0.2,0.4-0.5,0.4-0.9v-6.8c0-0.6,0.2-1.1,0.6-1.6
	c0.5-0.5,1-0.7,1.6-0.7c0.4,0,0.7,0.1,1,0.2c0.2,0.2,0.4,0.2,0.5,0.2c0.1,0,0.2,0,0.3-0.1c0,0,0.4-0.4,1.2-1.2c0,0-0.1-0.1-0.2-0.2
	c-0.9-0.7-1.8-1.1-2.8-1.1c-0.5,0-1,0.1-1.6,0.3C88.3,52.9,88.1,53,88,53h0c-0.1,0-0.2,0-0.3-0.1c-0.3-0.3-0.5-0.4-0.8-0.4
	C86.6,52.5,86.3,52.6,86.1,52.8 M75.7,59.4c0.4-0.4,0.9-0.6,1.4-0.6h3.7c0,0,0.1,0,0.1,0c0.2,0.1,0.4,0.3,0.4,0.5v0.1
	c0,0.2-0.1,0.4-0.2,0.7c-0.3,0.9-0.9,1.7-1.7,2.2c-0.7,0.4-1.4,0.6-2.1,0.6h-0.2c-0.4,0-0.8-0.2-1.2-0.5c-0.5-0.5-0.7-1-0.7-1.5
	C75.2,60.3,75.4,59.9,75.7,59.4 M75.6,52.7c-0.3,0.2-0.5,0.5-0.5,0.8v0.1c0,0.2,0.1,0.4,0.2,0.6c0.2,0.3,0.5,0.4,0.8,0.4h2.8
	c0.5,0,0.9,0.1,1.1,0.2c0.2,0.1,0.5,0.2,0.8,0.5c0.3,0.3,0.4,0.6,0.4,0.8v0c0,0.1,0,0.2-0.1,0.3c-0.1,0.2-0.3,0.2-0.6,0.2h-3.4
	c-1,0-1.9,0.4-2.8,1.2c-0.8,0.9-1.2,1.8-1.2,2.9v0.1c0,0.6,0.1,1.2,0.4,1.8c0.1,0.3,0.4,0.6,0.7,1c0.9,0.8,1.8,1.2,2.9,1.2h0.2
	c0.5,0,1.1-0.1,1.7-0.3c0.4-0.1,0.8-0.3,1.1-0.4c0.4-0.2,0.6-0.4,0.7-0.4c0.3,0,0.4,0.1,0.5,0.4c0.2,0.4,0.5,0.6,1,0.6
	c0.2,0,0.4-0.1,0.5-0.2c0.3-0.2,0.5-0.5,0.5-0.9v-7.3c0-0.7-0.2-1.5-0.6-2.2c-0.1-0.2-0.4-0.5-0.8-0.9c-0.8-0.7-1.7-1-2.7-1h-3.1
	C76,52.5,75.8,52.6,75.6,52.7 M59.6,49.4c-0.4,0.3-0.8,0.7-1.3,1.3c-1.3,1.7-1.9,3.5-1.9,5.4c0,1.1,0.2,2.1,0.6,3.1
	c0.9,2.2,2.4,3.9,4.6,4.9c1.2,0.5,2.4,0.8,3.6,0.8c2,0,3.8-0.6,5.4-1.9c0.5-0.4,0.8-0.7,0.8-1.1v-4.8c0-0.1,0-0.2-0.1-0.3
	c-0.2-0.5-0.6-0.7-1.2-0.7h-4.7c-0.3,0-0.5,0-0.6,0.1c-0.4,0.2-0.6,0.6-0.6,1c0,0.2,0.1,0.4,0.1,0.4c0.2,0.4,0.6,0.6,1.2,0.6h2.8
	c0.1,0,0.2,0,0.3,0c0.5,0.2,0.7,0.5,0.7,1v1.5c0,0.4-0.2,0.7-0.5,0.9c-1.2,0.7-2.3,1-3.3,1h-0.3c-0.5,0-1-0.1-1.7-0.2
	c-0.9-0.3-1.8-0.7-2.6-1.4c-1.5-1.4-2.2-3-2.2-4.9c0-1.6,0.6-3.1,1.7-4.5c1.4-1.4,3-2.1,4.9-2.1h0.1c1.5,0,2.8,0.5,4,1.4
	c0.2,0.1,0.3,0.1,0.4,0.1h0.1c0.1,0,0.1,0,0.2,0c0.5-0.2,0.8-0.5,0.8-1c0-0.3-0.1-0.5-0.2-0.7c-1.6-1.3-3.4-1.9-5.4-1.9
	C63.1,47.5,61.2,48.1,59.6,49.4 M47.4,47.6c-0.4,0.2-0.6,0.5-0.6,1v15.1c0,0.2,0,0.4,0,0.5c0.2,0.4,0.5,0.7,0.9,0.7
	c0.2,0,0.3,0,0.4-0.1c0.4-0.2,0.6-0.5,0.6-1.1V48.7c0-0.2,0-0.3,0-0.5c-0.2-0.4-0.5-0.7-0.9-0.7C47.6,47.6,47.5,47.6,47.4,47.6
	 M36.8,59.4c0.4-0.4,0.9-0.6,1.4-0.6h3.7c0,0,0.1,0,0.1,0c0.2,0.1,0.4,0.3,0.4,0.5v0.1c0,0.2-0.1,0.4-0.2,0.7
	c-0.3,0.9-0.9,1.7-1.7,2.2c-0.7,0.4-1.4,0.6-2.1,0.6h-0.2c-0.4,0-0.8-0.2-1.2-0.5c-0.5-0.5-0.7-1-0.7-1.5
	C36.2,60.3,36.4,59.9,36.8,59.4 M36.7,52.7c-0.3,0.2-0.5,0.5-0.5,0.8v0.1c0,0.2,0.1,0.4,0.2,0.6c0.2,0.3,0.5,0.4,0.8,0.4H40
	c0.5,0,0.9,0.1,1.1,0.2c0.2,0.1,0.5,0.2,0.8,0.5c0.3,0.3,0.4,0.6,0.4,0.8v0c0,0.1,0,0.2-0.1,0.3c-0.1,0.2-0.3,0.2-0.6,0.2h-3.4
	c-1,0-1.9,0.4-2.8,1.2c-0.8,0.9-1.2,1.8-1.2,2.9v0.1c0,0.6,0.1,1.2,0.4,1.8c0.1,0.3,0.4,0.6,0.7,1c0.9,0.8,1.8,1.2,2.9,1.2h0.2
	c0.5,0,1.1-0.1,1.7-0.3c0.4-0.1,0.8-0.3,1.1-0.4c0.4-0.2,0.6-0.4,0.7-0.4c0.3,0,0.4,0.1,0.5,0.4c0.2,0.4,0.5,0.6,1,0.6
	c0.2,0,0.4-0.1,0.5-0.2c0.3-0.2,0.5-0.5,0.5-0.9v-7.3c0-0.7-0.2-1.5-0.6-2.2c-0.1-0.2-0.4-0.5-0.8-0.9c-0.8-0.7-1.7-1-2.7-1h-3.1
	C37.1,52.5,36.9,52.6,36.7,52.7 M22.2,57.5c0.3-1,0.9-1.7,1.6-2.2c0.8-0.5,1.5-0.7,2.2-0.7h0.3c0.1,0,0.3,0,0.6,0.1
	c0.7,0.1,1.3,0.4,1.9,0.9c1,0.9,1.5,2,1.5,3.2c0,1.1-0.4,2.1-1.2,2.9c-0.8,0.8-1.8,1.2-2.9,1.2H26c-1.1,0-2.1-0.4-2.9-1.3
	c-0.8-0.8-1.1-1.8-1.1-2.9C22,58.4,22,58,22.2,57.5 M20.5,52.6c-0.4,0.2-0.6,0.6-0.6,1.2v15c0,0.2,0,0.4,0.1,0.5
	c0.2,0.5,0.5,0.7,1,0.7c0.2,0,0.3,0,0.5-0.1c0.4-0.2,0.6-0.5,0.6-1.1v-4.3c0-0.3,0.2-0.5,0.5-0.5h0.1c0,0,0.1,0,0.2,0.1
	c1,0.6,2.2,1,3.4,1c0.6,0,1.4-0.1,2.2-0.4c0.5-0.2,1-0.5,1.5-0.8c0.2-0.1,0.6-0.5,1.1-1.1c0.9-1.2,1.4-2.5,1.4-3.9v-0.1
	c0-1.2-0.3-2.3-1-3.4c-0.4-0.7-1-1.2-1.7-1.8c-1.1-0.7-2.3-1.1-3.5-1.1c-0.9,0-1.9,0.2-2.8,0.7c-0.5,0.3-0.7,0.4-0.9,0.4h0
	c-0.1,0-0.2,0-0.2,0c-0.1,0-0.2-0.2-0.4-0.5c-0.3-0.3-0.5-0.5-0.9-0.5C20.8,52.5,20.6,52.5,20.5,52.6 M3.1,52.8
	c0.2-0.4,0.6-0.9,1.3-1.5c1.3-1,2.7-1.5,4.1-1.5h0.3c1.3,0,2.5,0.4,3.7,1.2c0.2,0.1,0.6,0.4,1.2,1.1c1,1.3,1.5,2.7,1.5,4.2v0.2
	c0,1.2-0.3,2.3-1,3.4c-0.2,0.4-0.6,0.9-1.3,1.5c-1.3,1-2.7,1.5-4.1,1.5H8.5c-1.3,0-2.5-0.4-3.7-1.2c-0.2-0.1-0.6-0.4-1.2-1.1
	c-1-1.3-1.5-2.7-1.5-4.2v-0.2C2.1,55,2.4,53.9,3.1,52.8 M6.8,47.8c-1.3,0.3-2.5,0.8-3.6,1.7l-0.5,0.5C0.9,51.7,0,53.9,0,56.3
	c0,0.8,0.1,1.6,0.4,2.6c0.7,2,1.9,3.5,3.6,4.6c1.5,0.9,3,1.4,4.6,1.4c1.4,0,2.7-0.3,4-1c0.6-0.3,1.3-0.8,2-1.5
	c0.6-0.6,1-1.1,1.2-1.5c0.9-1.5,1.4-3.1,1.4-4.6c0-2-0.6-3.8-1.9-5.4c-0.2-0.3-0.7-0.7-1.2-1.3c-1.7-1.4-3.6-2-5.6-2
	C8.1,47.6,7.5,47.6,6.8,47.8"/>
</svg>
