<?xml version="1.0" encoding="utf-8"?>
<!-- Generator: Adobe Illustrator 16.0.0, SVG Export Plug-In . SVG Version: 6.00 Build 0)  -->
<!DOCTYPE svg PUBLIC "-//W3C//DTD SVG 1.1//EN" "http://www.w3.org/Graphics/SVG/1.1/DTD/svg11.dtd">
<svg version="1.1" id="Layer_1" xmlns="http://www.w3.org/2000/svg" xmlns:xlink="http://www.w3.org/1999/xlink" x="0px" y="0px"
	 width="36px" height="36px" viewBox="0 0 36 36" enable-background="new 0 0 36 36" xml:space="preserve">
<path fill-rule="evenodd" clip-rule="evenodd" fill="#488B40" d="M9.729,0h16.542C31.644,0,36,4.355,36,9.729v16.542
	C36,31.644,31.644,36,26.271,36H9.729C4.356,36,0,31.644,0,26.271V9.729C0,4.355,4.356,0,9.729,0z"/>
<path fill-rule="evenodd" clip-rule="evenodd" fill="none" stroke="#FFFFFF" stroke-miterlimit="10" d="M18,5.5
	c6.903,0,12.5,5.597,12.5,12.5S24.903,30.5,18,30.5S5.5,24.903,5.5,18S11.097,5.5,18,5.5z"/>
<g>
	<g>
		<path fill="#FFFFFF" d="M22.401,17.573l-4.16-4.472c-0.061-0.067-0.146-0.109-0.24-0.109c0,0-0.001,0-0.001,0l0,0
			c0,0-0.001,0.001-0.002,0.001c-0.091,0.001-0.173,0.04-0.233,0.104c0,0-0.001,0-0.002,0.001L13.6,17.573
			c-0.132,0.141-0.132,0.369,0,0.511c0.132,0.141,0.345,0.141,0.476,0l3.589-3.859v8.42c0,0.2,0.15,0.362,0.337,0.362
			c0.186,0,0.336-0.162,0.336-0.362v-8.417l3.589,3.856c0.131,0.141,0.344,0.141,0.476,0C22.532,17.942,22.532,17.714,22.401,17.573
			z"/>
	</g>
</g>
</svg>
